<svg xmlns="http://www.w3.org/2000/svg" height="24" viewBox="0 96 960 960" width="24"><path d="M337.615 757.307 480 614.922l142.385 142.385 38.922-38.922L518.922 576l142.385-142.385-38.922-38.922L480 537.078 337.615 394.693l-38.922 38.922L441.078 576 298.693 718.385l38.922 38.922Zm142.477 190.615q-77.152 0-145.066-29.325-67.914-29.324-118.152-79.595-50.238-50.27-79.517-118.055-29.279-67.785-29.279-144.855 0-77.152 29.325-145.066 29.324-67.914 79.595-118.152 50.27-50.238 118.055-79.517 67.785-29.279 144.855-29.279 77.152 0 145.066 29.325 67.914 29.324 118.152 79.595 50.238 50.27 79.517 118.055 29.279 67.785 29.279 144.855 0 77.152-29.325 145.066-29.324 67.914-79.595 118.152-50.27 50.238-118.055 79.517-67.785 29.279-144.855 29.279Zm-.105-55.96q131.898 0 223.936-92.026 92.039-92.026 92.039-223.923 0-131.898-92.026-223.936-92.026-92.039-223.923-92.039-131.898 0-223.936 92.026-92.039 92.026-92.039 223.923 0 131.898 92.026 223.936 92.026 92.039 223.923 92.039ZM480 576Z"/></svg>